<svg xmlns="http://www.w3.org/2000/svg" width="24" height="24" viewBox="0 0 24 24" fill="none">
    <path fill-rule="evenodd" clip-rule="evenodd" d="M22.5403 19.9037L17.1933 14.5591C18.0996 13.2003 18.5527 11.6603 18.5527 9.93913C18.5527 5.22859 14.6557 1.33333 9.94301 1.33333C5.23034 1.33333 1.33333 5.22859 1.33333 9.93913C1.33333 14.6497 5.23034 18.5449 9.94301 18.5449C11.6649 18.5449 13.2056 18.0014 14.5651 17.1861L19.9121 22.5308C20.0934 22.712 20.3653 22.712 20.5465 22.5308L22.4497 20.6284C22.7216 20.3567 22.7216 20.0849 22.5403 19.9037V19.9037ZM4.1428 9.84854C4.1428 6.5874 6.77102 3.96036 10.0336 3.96036C13.2963 3.96036 15.9245 6.5874 15.9245 9.84854C15.9245 13.1097 13.2963 15.7367 10.0336 15.7367C6.77102 15.7367 4.1428 13.1097 4.1428 9.84854V9.84854Z" fill="#74716E"/>
    <mask id="mask0_0_1353" style="mask-type:luminance" maskUnits="userSpaceOnUse" x="1" y="1" width="22" height="22">
        <path fill-rule="evenodd" clip-rule="evenodd" d="M22.5403 19.9037L17.1933 14.5591C18.0996 13.2003 18.5527 11.6603 18.5527 9.93913C18.5527 5.22859 14.6557 1.33333 9.94301 1.33333C5.23034 1.33333 1.33333 5.22859 1.33333 9.93913C1.33333 14.6497 5.23034 18.5449 9.94301 18.5449C11.6649 18.5449 13.2056 18.0014 14.5651 17.1861L19.9121 22.5308C20.0934 22.712 20.3653 22.712 20.5465 22.5308L22.4497 20.6284C22.7216 20.3567 22.7216 20.0849 22.5403 19.9037V19.9037ZM4.1428 9.84854C4.1428 6.5874 6.77102 3.96036 10.0336 3.96036C13.2963 3.96036 15.9245 6.5874 15.9245 9.84854C15.9245 13.1097 13.2963 15.7367 10.0336 15.7367C6.77102 15.7367 4.1428 13.1097 4.1428 9.84854V9.84854Z" fill="white"/>
    </mask>
    <g mask="url(#mask0_0_1353)">
    </g>
</svg>