<svg xmlns="http://www.w3.org/2000/svg" width="20" height="20" viewBox="0 0 20 20" fill="none">
    <path fill-rule="evenodd" clip-rule="evenodd" d="M10 13.6139C9.2273 13.6139 8.5213 13.3386 8.06279 12.8593C7.864 12.6508 7.87001 12.3192 8.07614 12.1187C8.28226 11.9178 8.61069 11.9234 8.8097 12.1317C9.06586 12.3998 9.52192 12.5666 10 12.5666C10.4783 12.5666 10.9344 12.4 11.1905 12.1317C11.3893 11.9234 11.7177 11.918 11.9241 12.1187C12.1302 12.3192 12.136 12.6508 11.9374 12.8593C11.4789 13.3386 10.7725 13.6139 10 13.6139V13.6139ZM18.3605 6.28039C18.0879 6.28039 17.8315 6.34819 17.605 6.46717C16.4636 3.34395 13.4853 1.11108 10 1.11108C6.51472 1.11108 3.53709 3.34395 2.39505 6.46717C2.16891 6.34841 1.9123 6.28039 1.63991 6.28039C0.735569 6.28039 0 7.02303 0 7.93607V10.9075C0 11.8203 0.735569 12.563 1.63991 12.563C2.54403 12.563 3.27982 11.8203 3.27982 10.9075V7.93629C3.27982 7.74614 3.24758 7.56362 3.18865 7.39368C4.01405 4.37866 6.75487 2.15882 9.99978 2.15882C13.2447 2.15882 15.9855 4.37889 16.8107 7.39368C16.752 7.56362 16.72 7.74614 16.72 7.93629V10.9078C16.72 11.0519 16.7382 11.1915 16.7727 11.3249C16.032 13.8377 13.9531 15.7744 11.3744 16.2899C11.1318 15.7693 10.6075 15.4083 9.99978 15.4083C9.16126 15.4083 8.48172 16.0948 8.48172 16.9414C8.48172 17.7877 9.16126 18.474 9.99978 18.474C10.702 18.474 11.2926 17.9927 11.466 17.3385C14.2266 16.8269 16.502 14.8987 17.5229 12.3304C17.7682 12.4777 18.0543 12.5628 18.3603 12.5628C19.2644 12.5628 20 11.8201 20 10.9073V7.93629C20.0002 7.02326 19.2649 6.28039 18.3605 6.28039V6.28039ZM7.13088 6.91684C6.84404 6.91684 6.61189 7.15145 6.61189 7.4406V8.87133C6.61189 9.16071 6.84404 9.39508 7.13088 9.39508C7.41706 9.39508 7.64965 9.16071 7.64965 8.87133V7.4406C7.64965 7.15145 7.41706 6.91684 7.13088 6.91684V6.91684ZM13.3881 8.87133V7.4406C13.3881 7.15122 13.156 6.91684 12.8696 6.91684C12.5829 6.91684 12.3508 7.15145 12.3508 7.4406V8.87133C12.3508 9.16071 12.5829 9.39508 12.8696 9.39508C13.156 9.39508 13.3881 9.16071 13.3881 8.87133V8.87133Z" fill="#74716E"/>
    <mask id="mask0_0_695" style="mask-type:luminance" maskUnits="userSpaceOnUse" x="0" y="1" width="20" height="18">
        <path fill-rule="evenodd" clip-rule="evenodd" d="M10 13.6139C9.2273 13.6139 8.5213 13.3386 8.06279 12.8593C7.864 12.6508 7.87001 12.3192 8.07614 12.1187C8.28226 11.9178 8.61069 11.9234 8.8097 12.1317C9.06586 12.3998 9.52192 12.5666 10 12.5666C10.4783 12.5666 10.9344 12.4 11.1905 12.1317C11.3893 11.9234 11.7177 11.918 11.9241 12.1187C12.1302 12.3192 12.136 12.6508 11.9374 12.8593C11.4789 13.3386 10.7725 13.6139 10 13.6139V13.6139ZM18.3605 6.28039C18.0879 6.28039 17.8315 6.34819 17.605 6.46717C16.4636 3.34395 13.4853 1.11108 10 1.11108C6.51472 1.11108 3.53709 3.34395 2.39505 6.46717C2.16891 6.34841 1.9123 6.28039 1.63991 6.28039C0.735569 6.28039 0 7.02303 0 7.93607V10.9075C0 11.8203 0.735569 12.563 1.63991 12.563C2.54403 12.563 3.27982 11.8203 3.27982 10.9075V7.93629C3.27982 7.74614 3.24758 7.56362 3.18865 7.39368C4.01405 4.37866 6.75487 2.15882 9.99978 2.15882C13.2447 2.15882 15.9855 4.37889 16.8107 7.39368C16.752 7.56362 16.72 7.74614 16.72 7.93629V10.9078C16.72 11.0519 16.7382 11.1915 16.7727 11.3249C16.032 13.8377 13.9531 15.7744 11.3744 16.2899C11.1318 15.7693 10.6075 15.4083 9.99978 15.4083C9.16126 15.4083 8.48172 16.0948 8.48172 16.9414C8.48172 17.7877 9.16126 18.474 9.99978 18.474C10.702 18.474 11.2926 17.9927 11.466 17.3385C14.2266 16.8269 16.502 14.8987 17.5229 12.3304C17.7682 12.4777 18.0543 12.5628 18.3603 12.5628C19.2644 12.5628 20 11.8201 20 10.9073V7.93629C20.0002 7.02326 19.2649 6.28039 18.3605 6.28039V6.28039ZM7.13088 6.91684C6.84404 6.91684 6.61189 7.15145 6.61189 7.4406V8.87133C6.61189 9.16071 6.84404 9.39508 7.13088 9.39508C7.41706 9.39508 7.64965 9.16071 7.64965 8.87133V7.4406C7.64965 7.15145 7.41706 6.91684 7.13088 6.91684V6.91684ZM13.3881 8.87133V7.4406C13.3881 7.15122 13.156 6.91684 12.8696 6.91684C12.5829 6.91684 12.3508 7.15145 12.3508 7.4406V8.87133C12.3508 9.16071 12.5829 9.39508 12.8696 9.39508C13.156 9.39508 13.3881 9.16071 13.3881 8.87133V8.87133Z" fill="white"/>
    </mask>
    <g mask="url(#mask0_0_695)">
    </g>
</svg>