<svg width="100" height="33" viewBox="0 0 100 33" fill="none" xmlns="http://www.w3.org/2000/svg">
<g id="tripklik_logo">
<g id="Group 36">
<g id="Group 3">
<mask id="mask0_0_692" style="mask-type:luminance" maskUnits="userSpaceOnUse" x="0" y="1" width="18" height="19">
<path id="Clip 2" fill-rule="evenodd" clip-rule="evenodd" d="M0 1.04126H17.0015V19.2096H0V1.04126Z" fill="white"/>
</mask>
<g mask="url(#mask0_0_692)">
<path id="Fill 1" fill-rule="evenodd" clip-rule="evenodd" d="M0.354505 3.44894C0.457903 4.17257 0.827179 4.48291 1.59527 4.48291H6.38109V19.2096H10.6204V4.48291H15.421C16.1891 4.48291 16.5583 4.17257 16.6617 3.44894L17.0015 1.04126H0L0.354505 3.44894Z" fill="white"/>
</g>
</g>
<path id="Fill 4" fill-rule="evenodd" clip-rule="evenodd" d="M27.74 7.5997L28.0798 5.11816H25.3619C23.6484 5.11816 22.7917 5.66469 22.3338 6.97932H22.2304L21.9498 6.0192C21.7873 5.50221 21.5362 5.3545 20.8863 5.3545H18.5672L18.582 19.2099H22.6588V11.0414C22.6588 9.40177 23.353 8.63367 24.904 8.63367H26.5288C27.2821 8.63367 27.6366 8.32348 27.74 7.5997" fill="white"/>
<mask id="mask1_0_692" style="mask-type:luminance" maskUnits="userSpaceOnUse" x="0" y="0" width="100" height="32">
<path id="Clip 7" fill-rule="evenodd" clip-rule="evenodd" d="M0 31.95H99.9852V0.317627H0V31.95Z" fill="white"/>
</mask>
<g mask="url(#mask1_0_692)">
<path id="Fill 6" fill-rule="evenodd" clip-rule="evenodd" d="M30.0443 19.195H34.1211V5.35449H30.0443V19.195Z" fill="white"/>
<path id="Fill 8" fill-rule="evenodd" clip-rule="evenodd" d="M47.9763 13.9365C47.9763 15.4725 47.2673 16.1521 45.5687 16.1521H43.8848C42.1713 16.1521 41.5066 15.4874 41.5066 13.9365V10.6573C41.5066 9.10635 42.1861 8.44165 43.8848 8.44165H45.5687C47.2821 8.44165 47.9763 9.10635 47.9763 10.6573V13.9365ZM52.0533 14.099V10.4357C52.0533 7.11226 50.1625 5.11816 46.706 5.11816H44.8744C43.1167 5.11816 41.8316 5.73855 41.2112 6.84638H41.1078L40.8419 6.01905C40.6647 5.50206 40.4283 5.35435 39.7784 5.35435H37.4298V23.9659L40.4726 23.39C41.1373 23.2718 41.5066 22.858 41.5066 22.1787V17.9394H41.61C42.1565 18.8699 43.3235 19.4165 44.9187 19.4165H46.706C50.1625 19.4165 52.0236 17.4372 52.0533 14.099V14.099Z" fill="white"/>
<path id="Fill 9" fill-rule="evenodd" clip-rule="evenodd" d="M63.2054 11.6323L68.8184 5.3841H64.5496C63.7224 5.3841 63.412 5.51718 62.9247 6.10803L58.6853 10.9825V0.317627H54.6086V19.195H58.6853V12.7696L63.3086 18.4565C63.7962 19.0769 64.136 19.2099 64.963 19.2099H69.0989L63.2054 12.1049C63.0725 11.9426 63.0725 11.78 63.2054 11.6323" fill="white"/>
<path id="Fill 10" fill-rule="evenodd" clip-rule="evenodd" d="M70.7236 19.195H74.8006V0.317627H70.7236V19.195Z" fill="white"/>
<path id="Fill 11" fill-rule="evenodd" clip-rule="evenodd" d="M78.1093 19.195H82.1863V5.35449H78.1093V19.195Z" fill="white"/>
<path id="Fill 12" fill-rule="evenodd" clip-rule="evenodd" d="M94.0916 12.1049C93.9586 11.9424 93.9586 11.78 94.0916 11.6323L99.7046 5.3841H95.4357C94.6086 5.3841 94.2984 5.51704 93.8109 6.10788L89.5716 10.9823V0.317627H85.4948V19.195H89.5716V12.7696L94.195 18.4565C94.6824 19.0769 95.0221 19.2099 95.8493 19.2099H99.9852L94.0916 12.1049Z" fill="white"/>
<path id="Fill 13" fill-rule="evenodd" clip-rule="evenodd" d="M10.7903 31.1384C10.7423 31.2272 10.681 31.2947 10.6064 31.3409C10.5318 31.3874 10.439 31.4205 10.3281 31.4404C10.265 31.452 10.1557 31.4577 9.99987 31.4577H9.09278V30.2051H9.93532C10.1672 30.2051 10.3449 30.2254 10.4684 30.266C10.5919 30.3066 10.6885 30.3771 10.7579 30.4772C10.8276 30.5775 10.8624 30.6957 10.8624 30.8314C10.8624 30.9474 10.8383 31.0498 10.7903 31.1384V31.1384ZM9.09278 28.674H9.821C10.0827 28.674 10.2675 28.6911 10.3752 28.7251C10.4829 28.7591 10.5658 28.822 10.6238 28.9139C10.6819 29.0059 10.7108 29.1124 10.7108 29.2334C10.7108 29.361 10.6796 29.467 10.6176 29.5515C10.5554 29.636 10.4631 29.6964 10.3405 29.7329C10.2476 29.7611 10.0944 29.7752 9.88067 29.7752H9.09278V28.674ZM10.6761 29.9492C10.8467 29.8647 10.9742 29.7536 11.0587 29.6161C11.1433 29.4786 11.1855 29.332 11.1855 29.1762C11.1855 29.0088 11.1378 28.8484 11.0426 28.6952C10.9471 28.5419 10.8155 28.4285 10.6473 28.3546C10.4792 28.2809 10.256 28.2441 9.97757 28.2441H8.61066V31.8877H9.99987C10.2319 31.8877 10.4278 31.8675 10.5878 31.8269C10.7476 31.7864 10.8805 31.7261 10.9866 31.6467C11.0926 31.567 11.1817 31.454 11.2539 31.3075C11.3259 31.1607 11.3619 31.002 11.3619 30.8314C11.3619 30.6193 11.3027 30.4354 11.1842 30.2797C11.0658 30.1241 10.8963 30.0139 10.6761 29.9492V29.9492Z" fill="white"/>
<path id="Fill 14" fill-rule="evenodd" clip-rule="evenodd" d="M14.2236 29.3153C14.068 29.5539 13.9353 29.7685 13.826 29.9591C13.7117 29.7536 13.5882 29.5481 13.4557 29.3427L12.7374 28.2441H12.1508L13.5551 30.3443V31.8877H14.0372V30.3443L15.4911 28.2441H14.9295L14.2236 29.3153Z" fill="white"/>
<path id="Fill 15" fill-rule="evenodd" clip-rule="evenodd" d="M17.3281 31.8877H17.8103V28.2441H17.3281V31.8877Z" fill="white"/>
<path id="Fill 16" fill-rule="evenodd" clip-rule="evenodd" d="M21.0634 31.1048L19.1497 28.2441H18.655V31.8877H19.1174V29.0245L21.0311 31.8877H21.5258V28.2441H21.0634V31.1048Z" fill="white"/>
<path id="Fill 17" fill-rule="evenodd" clip-rule="evenodd" d="M23.3378 31.8877H23.82V30.2325H25.5299V29.8025H23.82V28.674H25.7958V28.2441H23.3378V31.8877Z" fill="white"/>
<path id="Fill 18" fill-rule="evenodd" clip-rule="evenodd" d="M29.3441 31.1545C29.1097 31.4097 28.811 31.5373 28.4483 31.5373C28.0918 31.5373 27.7958 31.4109 27.5596 31.1582C27.3234 30.9054 27.2054 30.5598 27.2054 30.1205C27.2054 29.5722 27.3285 29.1808 27.5745 28.9462C27.8206 28.7118 28.1143 28.5945 28.4556 28.5945C28.6958 28.5945 28.9125 28.6554 29.1056 28.7771C29.2985 28.8989 29.4453 29.0706 29.5454 29.2917C29.6457 29.5128 29.6958 29.7719 29.6958 30.0684C29.6958 30.5372 29.5785 30.8992 29.3441 31.1545M29.3627 28.4205C29.0927 28.2598 28.7895 28.1794 28.4531 28.1794C27.9395 28.1794 27.5202 28.3506 27.1955 28.6927C26.8707 29.0348 26.7084 29.5082 26.7084 30.1131C26.7084 30.4329 26.7779 30.7362 26.9171 31.0227C27.0564 31.3094 27.261 31.5356 27.5311 31.7013C27.8011 31.867 28.1076 31.9499 28.4506 31.9499C28.7672 31.9499 29.0621 31.8749 29.3354 31.7248C29.6088 31.575 29.8202 31.3542 29.9692 31.0626C30.1183 30.7709 30.1929 30.4403 30.1929 30.0709C30.1929 29.7063 30.1221 29.3803 29.9805 29.0929C29.8388 28.8054 29.6329 28.5812 29.3627 28.4205" fill="white"/>
<path id="Fill 19" fill-rule="evenodd" clip-rule="evenodd" d="M30.7855 28.674H31.9859V31.8877H32.4682V28.674H33.6735V28.2441H30.7855V28.674Z" fill="white"/>
<path id="Fill 20" fill-rule="evenodd" clip-rule="evenodd" d="M34.6603 30.2176H36.6759V29.7902H34.6603V28.6742H36.8125V28.2444H34.178V31.888H36.8972V31.4578H34.6603V30.2176Z" fill="white"/>
<path id="Fill 21" fill-rule="evenodd" clip-rule="evenodd" d="M40.4885 28.2441H39.8349L38.0254 30.0509V28.2441H37.5433V31.8877H38.0254V30.6251L38.6219 30.0436L39.9192 31.8877H40.5555L38.96 29.7204L40.4885 28.2441Z" fill="white"/>
<path id="Fill 22" fill-rule="evenodd" clip-rule="evenodd" d="M42.007 28.674H43.2074V31.8877H43.6897V28.674H44.895V28.2441H42.007V28.674Z" fill="white"/>
<path id="Fill 23" fill-rule="evenodd" clip-rule="evenodd" d="M47.2069 30.2176H49.2225V29.7902H47.2069V28.6742H49.3591V28.2444H46.7247V31.888H49.4438V31.4578H47.2069V30.2176Z" fill="white"/>
<path id="Fill 24" fill-rule="evenodd" clip-rule="evenodd" d="M52.5724 31.3038C52.3851 31.4597 52.1565 31.5375 51.8863 31.5375C51.6644 31.5375 51.4581 31.4802 51.2675 31.366C51.077 31.2516 50.9365 31.079 50.8461 30.8477C50.7559 30.6167 50.7107 30.3462 50.7107 30.0363C50.7107 29.796 50.7488 29.5628 50.8251 29.3366C50.9014 29.1103 51.0334 28.9303 51.2215 28.796C51.4096 28.6617 51.6436 28.5947 51.9235 28.5947C52.1672 28.5947 52.3695 28.6551 52.5302 28.7762C52.6909 28.897 52.8135 29.0903 52.898 29.3552L53.3727 29.2434C53.2749 28.9069 53.1018 28.6461 52.8532 28.4606C52.6048 28.2749 52.2981 28.1821 51.9336 28.1821C51.6121 28.1821 51.3176 28.2554 51.05 28.4021C50.7825 28.5487 50.5761 28.7634 50.4312 29.0458C50.2861 29.3284 50.2136 29.6594 50.2136 30.0388C50.2136 30.3867 50.2779 30.7123 50.4064 31.0155C50.5347 31.3188 50.722 31.5504 50.9681 31.7102C51.2141 31.8702 51.5334 31.9501 51.9262 31.9501C52.3055 31.9501 52.6266 31.8461 52.8894 31.6381C53.1519 31.4301 53.3337 31.1284 53.4349 30.7322L52.9526 30.6105C52.8863 30.917 52.7597 31.148 52.5724 31.3038" fill="white"/>
<path id="Fill 25" fill-rule="evenodd" clip-rule="evenodd" d="M56.342 29.7403H54.4482V28.2441H53.9659V31.8877H54.4482V30.1703H56.342V31.8877H56.8241V28.2441H56.342V29.7403Z" fill="white"/>
<path id="Fill 26" fill-rule="evenodd" clip-rule="evenodd" d="M60.0303 31.1048L58.1166 28.2441H57.6219V31.8877H58.0842V29.0245L59.998 31.8877H60.4926V28.2441H60.0303V31.1048Z" fill="white"/>
<path id="Fill 27" fill-rule="evenodd" clip-rule="evenodd" d="M63.7919 31.1545C63.5575 31.4097 63.2588 31.5373 62.896 31.5373C62.5396 31.5373 62.2436 31.4109 62.0074 31.1582C61.7712 30.9054 61.6532 30.5598 61.6532 30.1205C61.6532 29.5722 61.7762 29.1808 62.0223 28.9462C62.2684 28.7118 62.562 28.5945 62.9033 28.5945C63.1436 28.5945 63.3603 28.6554 63.5533 28.7771C63.7462 28.8989 63.8931 29.0706 63.9932 29.2917C64.0935 29.5128 64.1436 29.7719 64.1436 30.0684C64.1436 30.5372 64.0263 30.8992 63.7919 31.1545M63.8105 28.4205C63.5405 28.2598 63.2372 28.1794 62.9009 28.1794C62.3871 28.1794 61.9679 28.3506 61.6433 28.6927C61.3185 29.0348 61.1561 29.5082 61.1561 30.1131C61.1561 30.4329 61.2257 30.7362 61.3648 31.0227C61.5041 31.3094 61.7086 31.5356 61.9789 31.7013C62.2489 31.867 62.5554 31.9499 62.8984 31.9499C63.2149 31.9499 63.5099 31.8749 63.7832 31.7248C64.0566 31.575 64.2679 31.3542 64.417 31.0626C64.566 30.7709 64.6406 30.4403 64.6406 30.0709C64.6406 29.7063 64.5699 29.3803 64.4282 29.0929C64.2866 28.8054 64.0806 28.5812 63.8105 28.4205" fill="white"/>
<path id="Fill 28" fill-rule="evenodd" clip-rule="evenodd" d="M67.0205 28.2441H66.5382V31.8877H68.8149V31.4577H67.0205V28.2441Z" fill="white"/>
<path id="Fill 29" fill-rule="evenodd" clip-rule="evenodd" d="M72.1609 31.1545C71.9265 31.4097 71.628 31.5373 71.265 31.5373C70.9086 31.5373 70.6126 31.4109 70.3764 31.1582C70.1402 30.9054 70.0222 30.5598 70.0222 30.1205C70.0222 29.5722 70.1452 29.1808 70.3915 28.9462C70.6374 28.7118 70.9311 28.5945 71.2724 28.5945C71.5126 28.5945 71.7293 28.6554 71.9223 28.7771C72.1153 28.8989 72.2621 29.0706 72.3622 29.2917C72.4625 29.5128 72.5126 29.7719 72.5126 30.0684C72.5126 30.5372 72.3953 30.8992 72.1609 31.1545M72.1795 28.4205C71.9095 28.2598 71.6062 28.1794 71.2699 28.1794C70.7563 28.1794 70.337 28.3506 70.0123 28.6927C69.6876 29.0348 69.5251 29.5082 69.5251 30.1131C69.5251 30.4329 69.5947 30.7362 69.7339 31.0227C69.8732 31.3094 70.0777 31.5356 70.3479 31.7013C70.6179 31.867 70.9246 31.9499 71.2674 31.9499C71.5839 31.9499 71.8789 31.8749 72.1522 31.7248C72.4256 31.575 72.637 31.3542 72.786 31.0626C72.935 30.7709 73.0096 30.4403 73.0096 30.0709C73.0096 29.7063 72.9389 29.3803 72.7972 29.0929C72.6556 28.8054 72.4497 28.5812 72.1795 28.4205" fill="white"/>
<path id="Fill 30" fill-rule="evenodd" clip-rule="evenodd" d="M75.6324 30.4588H76.7036V31.1374C76.6009 31.2284 76.4501 31.3142 76.2512 31.3945C76.0525 31.4749 75.8486 31.5151 75.6399 31.5151C75.3996 31.5151 75.1726 31.462 74.9588 31.356C74.7451 31.2499 74.5823 31.0876 74.4705 30.8688C74.3585 30.6501 74.3027 30.3784 74.3027 30.0536C74.3027 29.7903 74.3491 29.5458 74.4419 29.3204C74.4967 29.1895 74.5732 29.0694 74.6717 28.9601C74.7704 28.8507 74.9001 28.7625 75.0608 28.6954C75.2215 28.6282 75.412 28.5947 75.6324 28.5947C75.8163 28.5947 75.9837 28.6266 76.1345 28.6903C76.2853 28.7542 76.4012 28.839 76.4825 28.9451C76.5636 29.0513 76.6317 29.197 76.6863 29.3826L77.1212 29.2632C77.0581 29.018 76.9662 28.8192 76.8453 28.6668C76.7244 28.5143 76.5574 28.3954 76.3445 28.31C76.1315 28.2248 75.8934 28.1821 75.6299 28.1821C75.267 28.1821 74.9463 28.2567 74.6681 28.4059C74.3897 28.5548 74.1764 28.7832 74.0281 29.0904C73.8798 29.3978 73.8057 29.729 73.8057 30.0835C73.8057 30.4414 73.8803 30.7653 74.0293 31.0552C74.1783 31.3452 74.3992 31.5669 74.6916 31.7201C74.9841 31.8734 75.3092 31.9501 75.6671 31.9501C75.9323 31.9501 76.1907 31.9022 76.4426 31.8071C76.6944 31.7118 76.9389 31.5697 77.1758 31.3808V30.0288L75.6324 30.0312V30.4588Z" fill="white"/>
<path id="Fill 31" fill-rule="evenodd" clip-rule="evenodd" d="M79.6534 29.3153C79.4976 29.5539 79.3651 29.7685 79.2558 29.9591C79.1415 29.7536 79.018 29.5481 78.8855 29.3427L78.167 28.2441H77.5806L78.9849 30.3443V31.8877H79.467V30.3443L80.921 28.2441H80.3594L79.6534 29.3153Z" fill="white"/>
<path id="Fill 32" fill-rule="evenodd" clip-rule="evenodd" d="M82.8438 31.8879H83.1376V30.8791H84.1797V30.617H83.1376V29.9295H84.3419V29.6675H82.8438V31.8879Z" fill="white"/>
<path id="Fill 33" fill-rule="evenodd" clip-rule="evenodd" d="M85.2792 31.4698L86.5256 29.9295V29.6675H84.9353V29.9295H86.1743C86.1015 30.0043 86.0248 30.0921 85.944 30.1929L84.8066 31.6152V31.8879H86.562V31.626H85.1443L85.2792 31.4698Z" fill="white"/>
<path id="Fill 34" fill-rule="evenodd" clip-rule="evenodd" d="M88.5918 31.5318C88.4778 31.6269 88.3384 31.6743 88.1738 31.6743C88.0385 31.6743 87.9128 31.6394 87.7967 31.5697C87.6806 31.5 87.5949 31.3947 87.54 31.2539C87.4849 31.113 87.4574 30.9483 87.4574 30.7594C87.4574 30.613 87.4807 30.4708 87.5271 30.3331C87.5735 30.1951 87.654 30.0854 87.7688 30.0035C87.8833 29.9219 88.0259 29.8809 88.1966 29.8809C88.345 29.8809 88.4682 29.9177 88.5661 29.9914C88.6641 30.0651 88.7388 30.1829 88.7904 30.3443L89.0796 30.2762C89.0199 30.0712 88.9146 29.9123 88.763 29.7991C88.6116 29.6861 88.4248 29.6294 88.2026 29.6294C88.0067 29.6294 87.8271 29.6742 87.6642 29.7635C87.501 29.8529 87.3754 29.9838 87.2871 30.1558C87.1986 30.3281 87.1546 30.5297 87.1546 30.7609C87.1546 30.973 87.1936 31.1715 87.2719 31.3561C87.3502 31.5409 87.4642 31.6821 87.6143 31.7795C87.7641 31.877 87.9587 31.9256 88.198 31.9256C88.4292 31.9256 88.6249 31.8622 88.785 31.7356C88.945 31.6087 89.0559 31.4248 89.1175 31.1836L88.8236 31.1093C88.7833 31.296 88.7059 31.4369 88.5918 31.5318" fill="white"/>
<path id="Fill 35" fill-rule="evenodd" clip-rule="evenodd" d="M90.9173 31.441C90.7743 31.5967 90.5923 31.6744 90.3712 31.6744C90.154 31.6744 89.9735 31.5975 89.8298 31.4434C89.6858 31.2895 89.6139 31.0787 89.6139 30.8109C89.6139 30.4769 89.6889 30.2382 89.8388 30.0954C89.9888 29.9525 90.1678 29.8811 90.3758 29.8811C90.5221 29.8811 90.6542 29.9181 90.7719 29.9923C90.8895 30.0666 90.9787 30.171 91.0399 30.3059C91.1009 30.4407 91.1314 30.5985 91.1314 30.7793C91.1314 31.065 91.0601 31.2856 90.9173 31.441M90.9285 29.775C90.7639 29.6772 90.5792 29.6282 90.3741 29.6282C90.0611 29.6282 89.8057 29.7325 89.6078 29.9409C89.4099 30.1494 89.3109 30.4379 89.3109 30.8065C89.3109 31.0013 89.3533 31.1861 89.4381 31.3608C89.523 31.5356 89.6477 31.6734 89.8124 31.7743C89.9769 31.8753 90.1636 31.9257 90.3727 31.9257C90.5656 31.9257 90.7453 31.8802 90.9119 31.7887C91.0786 31.6973 91.2072 31.5627 91.2981 31.385C91.3889 31.2073 91.4344 31.006 91.4344 30.7806C91.4344 30.5586 91.3913 30.3599 91.305 30.1847C91.2186 30.0096 91.093 29.8731 90.9285 29.775" fill="white"/>
</g>
</g>
</g>
</svg>
