<svg width="14" height="14" viewBox="0 0 14 14" fill="none" xmlns="http://www.w3.org/2000/svg">
<g id="icons/control-panel/user">
<path id="ico-user" fill-rule="evenodd" clip-rule="evenodd" d="M6.99999 7.00011C8.49721 7.00011 9.72221 5.77511 9.72221 4.27789C9.72221 2.78066 8.49721 1.55566 6.99999 1.55566C5.50276 1.55566 4.27776 2.78066 4.27776 4.27789C4.27776 5.77511 5.50276 7.00011 6.99999 7.00011V7.00011ZM6.99999 8.36122C5.16249 8.36122 1.55554 9.24594 1.55554 11.0834V12.4446H12.4444V11.0834C12.4444 9.24594 8.83749 8.36122 6.99999 8.36122V8.36122Z" fill="#74716E"/>
<mask id="mask0_0_724" style="mask-type:luminance" maskUnits="userSpaceOnUse" x="1" y="1" width="12" height="12">
<path id="ico-user_2" fill-rule="evenodd" clip-rule="evenodd" d="M6.99999 7.00011C8.49721 7.00011 9.72221 5.77511 9.72221 4.27789C9.72221 2.78066 8.49721 1.55566 6.99999 1.55566C5.50276 1.55566 4.27776 2.78066 4.27776 4.27789C4.27776 5.77511 5.50276 7.00011 6.99999 7.00011V7.00011ZM6.99999 8.36122C5.16249 8.36122 1.55554 9.24594 1.55554 11.0834V12.4446H12.4444V11.0834C12.4444 9.24594 8.83749 8.36122 6.99999 8.36122V8.36122Z" fill="white"/>
</mask>
<g mask="url(#mask0_0_724)">
</g>
</g>
</svg>
