<svg width="37" height="18" viewBox="0 0 37 18" fill="none" xmlns="http://www.w3.org/2000/svg">
<g id="logo-visaelectron">
<g id="electron">
<path id="path4167" d="M21.6529 14.9715H20.4765V16.0664H21.7925V16.3956H20.0801V13.3579H21.725V13.6871H20.4765V14.6469H21.6529V14.9715Z" fill="#00579F"/>
<path id="path4169" d="M22.3994 13.1958H22.8016V16.3955H22.3994V13.1958Z" fill="#00579F"/>
<path id="path4173" fill-rule="evenodd" clip-rule="evenodd" d="M24.5442 16.1342C24.1434 16.1342 23.8053 15.9134 23.7964 15.3769H25.3285C25.3376 15.3318 25.3422 15.2733 25.3422 15.1923C25.3422 14.7912 25.1574 14.1692 24.4408 14.1692C23.8053 14.1692 23.418 14.683 23.418 15.341C23.418 15.999 23.819 16.4451 24.4902 16.4451C24.8375 16.4451 25.0807 16.3684 25.2205 16.3055L25.1484 16.0216C25.0041 16.0845 24.8284 16.1342 24.5442 16.1342ZM24.4093 14.4531C24.8554 14.4531 24.9636 14.8452 24.959 15.093H23.8007C23.8323 14.8182 24.0036 14.4531 24.4093 14.4531Z" fill="#00579F"/>
<path id="path4177" d="M27.4995 16.3189C27.3959 16.3686 27.1659 16.4452 26.8731 16.4452C26.2152 16.4452 25.7871 15.9991 25.7871 15.332C25.7871 14.6605 26.2465 14.1693 26.9587 14.1693C27.1929 14.1693 27.4002 14.2277 27.5084 14.2865L27.4185 14.5884C27.3236 14.5388 27.1749 14.4846 26.9587 14.4846C26.4583 14.4846 26.1882 14.8586 26.1882 15.3095C26.1882 15.8142 26.5126 16.1251 26.9452 16.1251C27.1705 16.1251 27.3192 16.0711 27.4318 16.0215L27.4995 16.3189Z" fill="#00579F"/>
<path id="path4181" d="M28.6124 13.6915V14.2143H29.18V14.516H28.6124V15.6924C28.6124 15.963 28.689 16.1161 28.9098 16.1161C29.0178 16.1161 29.0812 16.1072 29.1397 16.0889L29.1578 16.3911C29.0812 16.4181 28.9595 16.4451 28.8062 16.4451C28.6213 16.4451 28.4726 16.3819 28.3781 16.2785C28.2699 16.1566 28.2249 15.963 28.2249 15.7061V14.516H27.8867V14.2143H28.2249V13.8086L28.6124 13.6915Z" fill="#00579F"/>
<path id="path4185" d="M29.7339 14.8949C29.7339 14.6379 29.7291 14.4172 29.7158 14.2142H30.0629L30.0809 14.6469H30.0942C30.1935 14.354 30.4367 14.1692 30.7025 14.1692C30.7433 14.1692 30.7748 14.1738 30.811 14.1781V14.5524C30.7703 14.5432 30.73 14.5432 30.6755 14.5432C30.3964 14.5432 30.1979 14.7505 30.1439 15.0481C30.1349 15.1021 30.1304 15.1696 30.1304 15.233V16.3956H29.7339V14.8949Z" fill="#00579F"/>
<path id="path4189" fill-rule="evenodd" clip-rule="evenodd" d="M32.1625 16.4452C32.6852 16.4452 33.2487 16.0936 33.2487 15.2869C33.2487 14.6244 32.825 14.1693 32.1986 14.1693C31.5992 14.1693 31.1172 14.5974 31.1172 15.323C31.1172 16.0123 31.5766 16.4452 32.1625 16.4452ZM32.1805 16.1478C31.793 16.1478 31.5226 15.7872 31.5226 15.3095C31.5226 14.8993 31.7255 14.4665 32.1895 14.4665C32.6582 14.4665 32.8429 14.9309 32.8429 15.3004C32.8429 15.7916 32.5592 16.1478 32.1805 16.1478Z" fill="#00579F"/>
<path id="path4193" d="M33.856 14.8046C33.856 14.5749 33.8512 14.3946 33.8379 14.2144H34.1893L34.2119 14.5749H34.2209C34.3291 14.372 34.5814 14.1693 34.942 14.1693C35.2437 14.1693 35.7125 14.3496 35.7125 15.0974V16.3955H35.316V15.1382C35.316 14.7868 35.1854 14.4937 34.8113 14.4937C34.5544 14.4937 34.3515 14.6785 34.2797 14.8993C34.2614 14.949 34.2524 15.0164 34.2524 15.0842V16.3955H33.856V14.8046Z" fill="#00579F"/>
</g>
<path id="polygon9" d="M15.9313 12.1943H12.9668L14.821 0.729126H17.7854L15.9313 12.1943Z" fill="#00579F"/>
<path id="path11" d="M26.678 1.00936C26.0932 0.777377 25.1658 0.52124 24.019 0.52124C21.0914 0.52124 19.0299 2.08238 19.0172 4.31433C18.9929 5.96106 20.4932 6.8757 21.6154 7.42477C22.7623 7.98584 23.1522 8.35205 23.1522 8.85217C23.1405 9.62025 22.2254 9.9743 21.3719 9.9743C20.1883 9.9743 19.5541 9.79177 18.5904 9.36444L18.2 9.18125L17.7852 11.7549C18.4805 12.0717 19.7615 12.3528 21.0914 12.3651C24.202 12.3651 26.2271 10.8281 26.2511 8.44964C26.263 7.14448 25.4707 6.14441 23.7627 5.32721C22.7258 4.80261 22.0908 4.44888 22.0908 3.91213C22.103 3.42418 22.6279 2.92439 23.7984 2.92439C24.7621 2.89991 25.4702 3.13156 26.0067 3.36338L26.2748 3.48513L26.678 1.00936V1.00936V1.00936Z" fill="#00579F"/>
<path id="path13" fill-rule="evenodd" clip-rule="evenodd" d="M31.9842 0.729126H34.2772L36.6689 12.1942H33.924C33.924 12.1942 33.6554 10.8768 33.5703 10.4743H29.764C29.654 10.7791 29.1419 12.1942 29.1419 12.1942H26.0312L30.4347 1.6804C30.7398 0.936305 31.277 0.729126 31.9842 0.729126ZM31.8015 4.92474C31.8015 4.92474 30.862 7.47395 30.6179 8.13261H33.082C32.9601 7.55938 32.3987 4.81499 32.3987 4.81499L32.1915 3.82708C32.1043 4.08147 31.9781 4.43122 31.893 4.66712C31.8353 4.82703 31.7965 4.93463 31.8015 4.92474Z" fill="#00579F"/>
<path id="path15" d="M10.4911 0.729126L7.5878 8.54729L7.27055 6.96168C6.7338 5.13208 5.05043 3.14427 3.17188 2.15587L5.83116 12.1822H8.96607L13.6258 0.729126H10.4911V0.729126V0.729126Z" fill="#00579F"/>
<path id="path17" d="M4.89169 0.729126H0.122038L0.0732422 0.960784C3.79387 1.91222 6.25797 4.20561 7.27036 6.96216L6.23349 1.69288C6.06279 0.960622 5.53819 0.753281 4.89169 0.729126V0.729126Z" fill="#FAA61A"/>
</g>
</svg>
