<svg width="24" height="20" viewBox="0 0 24 20" fill="none" xmlns="http://www.w3.org/2000/svg">
<g id="logo-mastercard">
<path id="XMLID_1775_" fill-rule="evenodd" clip-rule="evenodd" d="M22.3374 17.3865V15.5833H21.9191V16.6316C21.7797 16.4429 21.5806 16.3381 21.3217 16.3381C20.7839 16.3381 20.3657 16.7784 20.3657 17.3865C20.3657 17.9945 20.7839 18.4348 21.3217 18.4348C21.6005 18.4348 21.7996 18.33 21.9191 18.1413V18.3929H22.3374V17.3865ZM9.98957 16.38H10.6667V16.7784H9.98957V17.68C9.98957 17.8897 10.0692 18.0155 10.2684 18.0155C10.368 18.0155 10.5074 17.9945 10.6269 17.9106L10.7464 18.2881C10.607 18.3719 10.4078 18.4348 10.2286 18.4348C9.75058 18.4348 9.57134 18.1623 9.57134 17.701V16.7784H9.19294V16.38H9.57134V15.772H9.98957V16.38ZM4.4729 17.1348V18.3929H4.01483V17.2816C4.01483 16.9461 3.87542 16.7574 3.5966 16.7574C3.3377 16.7574 3.13854 16.9252 3.13854 17.2816V18.3929H2.72031V17.2816C2.72031 16.9461 2.5809 16.7574 2.30208 16.7574C2.02325 16.7574 1.84401 16.9252 1.84401 17.2816V18.3929H1.42578V16.38H1.84401V16.6316C2.00334 16.401 2.2025 16.3381 2.40165 16.3381C2.70039 16.3381 2.89955 16.4639 3.03896 16.6945C3.2182 16.422 3.47711 16.3381 3.7161 16.3381C4.19408 16.3381 4.4729 16.6526 4.4729 17.1348ZM14.2117 16.3381C13.9727 16.3381 13.8134 16.4639 13.7138 16.6316V16.38H13.2956V18.3929H13.7138V17.2607C13.7138 16.9252 13.8532 16.7365 14.1121 16.7365C14.1918 16.7365 14.2914 16.7574 14.371 16.7784L14.4905 16.359C14.4109 16.3381 14.2914 16.3381 14.2117 16.3381ZM8.07765 16.3381C8.37639 16.3381 8.65521 16.401 8.85437 16.5478L8.67513 16.9042C8.55563 16.8413 8.31664 16.7365 8.07765 16.7365C7.85858 16.7365 7.71917 16.8203 7.71917 16.9671C7.71917 17.0929 7.85858 17.1348 8.03782 17.1558L8.23698 17.1768C8.6353 17.2397 8.8942 17.4284 8.8942 17.7848C8.8942 18.1623 8.57555 18.4348 8.01791 18.4348C7.71917 18.4348 7.42043 18.351 7.20136 18.1832L7.40052 17.8477C7.53993 17.9526 7.759 18.0574 8.03782 18.0574C8.31664 18.0574 8.47597 17.9526 8.47597 17.8058C8.47597 17.701 8.35648 17.6381 8.1374 17.5961L7.93824 17.5752C7.52001 17.5123 7.28102 17.3236 7.28102 16.9881C7.28102 16.5897 7.59968 16.3381 8.07765 16.3381ZM19.9674 16.3381C19.7284 16.3381 19.5691 16.4639 19.4695 16.6316V16.38H19.0513V18.3929H19.4695V17.2607C19.4695 16.9252 19.6089 16.7365 19.8678 16.7365C19.9475 16.7365 20.047 16.7574 20.1267 16.7784L20.2462 16.359C20.1665 16.3381 20.047 16.3381 19.9674 16.3381ZM15.6457 18.4348C15.0283 18.4348 14.6299 17.9945 14.6299 17.3865C14.6299 16.7784 15.0283 16.3381 15.6457 16.3381C15.9245 16.3381 16.1236 16.401 16.3228 16.5687L16.1236 16.9252C15.9643 16.7994 15.805 16.7365 15.6257 16.7365C15.2872 16.7574 15.0482 17.009 15.0482 17.3865C15.0482 17.7848 15.2872 18.0364 15.6257 18.0364C15.805 18.0364 15.9643 17.9735 16.1236 17.8477L16.3228 18.2042C16.1236 18.3719 15.9245 18.4348 15.6457 18.4348ZM18.4936 17.3865V16.38H18.0754V16.6316C17.936 16.4429 17.7368 16.3381 17.4779 16.3381C16.9402 16.3381 16.5219 16.7784 16.5219 17.3865C16.5219 17.9945 16.9402 18.4348 17.4779 18.4348C17.7567 18.4348 17.9559 18.33 18.0754 18.1413V18.3929H18.4936V17.3865ZM17.5377 16.7365C17.1792 16.7365 16.9601 17.03 16.9601 17.3865C16.9601 17.7429 17.1792 18.0155 17.5377 18.0364C17.8762 18.0364 18.1152 17.7429 18.1152 17.3865C18.1152 17.009 17.8762 16.7365 17.5377 16.7365ZM11.9612 16.3381C11.4036 16.3381 11.0053 16.7574 11.0053 17.3865C11.0053 18.0155 11.4036 18.4348 11.9811 18.4348C12.26 18.4348 12.5388 18.351 12.7579 18.1623L12.5587 17.8477C12.3994 17.9735 12.2002 18.0574 12.0011 18.0574C11.7422 18.0574 11.4833 17.9316 11.4235 17.5752H12.8375V17.4074C12.8574 16.7574 12.499 16.3381 11.9612 16.3381ZM12.4392 17.1977C12.3994 16.8832 12.2201 16.7155 11.9612 16.7155C11.6625 16.7155 11.4833 16.9252 11.4434 17.1977H12.4392ZM21.3814 16.7365C21.0229 16.7365 20.8038 17.03 20.8038 17.3865C20.8038 17.7429 21.0229 18.0155 21.3814 18.0364C21.72 18.0364 21.959 17.7429 21.959 17.3865C21.959 17.009 21.72 16.7365 21.3814 16.7365ZM6.82296 17.3865V16.38H6.40473V16.6316C6.26532 16.4429 6.06616 16.3381 5.80725 16.3381C5.26953 16.3381 4.8513 16.7784 4.8513 17.3865C4.8513 17.9945 5.26953 18.4348 5.80725 18.4348C6.08608 18.4348 6.28523 18.33 6.40473 18.1413V18.3929H6.82296V17.3865ZM5.84709 16.7365C5.4886 16.7365 5.26953 17.03 5.26953 17.3865C5.26953 17.7429 5.4886 18.0155 5.84709 18.0364C6.18565 18.0364 6.42464 17.7429 6.42464 17.3865C6.42464 17.009 6.18565 16.7365 5.84709 16.7365Z" fill="black"/>
<path id="Rectangle-path" d="M8.52539 2.04089H14.7421V13.0055H8.52539V2.04089Z" fill="#FF5F00"/>
<path id="XMLID_330_" d="M8.91999 7.52316C8.91999 5.29537 9.98571 3.31941 11.6238 2.04085C10.4199 1.11099 8.90026 0.549194 7.24248 0.549194C3.31511 0.549194 0.137695 3.66811 0.137695 7.52316C0.137695 11.3782 3.31511 14.4971 7.24248 14.4971C8.90026 14.4971 10.4199 13.9353 11.6238 13.0055C9.98571 11.7463 8.91999 9.75096 8.91999 7.52316Z" fill="#EB001B"/>
<path id="Shape" d="M23.1296 7.52316C23.1296 11.3782 19.9522 14.4971 16.0248 14.4971C14.3671 14.4971 12.8474 13.9353 11.6436 13.0055C13.3013 11.7269 14.3473 9.75096 14.3473 7.52316C14.3473 5.29537 13.2816 3.31941 11.6436 2.04085C12.8474 1.11099 14.3671 0.549194 16.0248 0.549194C19.9522 0.549194 23.1296 3.68748 23.1296 7.52316Z" fill="#F79E1B"/>
</g>
</svg>
