<svg width="24" height="20" viewBox="0 0 24 20" fill="none" xmlns="http://www.w3.org/2000/svg">
<g id="logo-maestro">
<path id="Shape" fill-rule="evenodd" clip-rule="evenodd" d="M22.3744 12.5947V12.8282H22.2964V12.5947H22.1543V12.5472H22.5166V12.5947H22.3744ZM23.0774 12.5467V12.8282H22.9993V12.6155L22.8795 12.7992H22.798L22.6782 12.6159V12.8282H22.5995V12.5467H22.7109L22.8384 12.7401L22.9666 12.5467H23.0774Z" fill="#0099DF"/>
<path id="Shape_2" d="M14.7692 13.298H8.30762V2.22107H14.7692V13.298Z" fill="#6C6BBD"/>
<path id="Shape_3" d="M9.16729 7.29796C9.16729 9.50617 10.275 11.4732 12 12.7408C10.7386 13.6678 9.14654 14.221 7.41636 14.221C3.32031 14.221 0 11.1215 0 7.29796C0 3.4744 3.32031 0.374878 7.41636 0.374878C9.14654 0.374878 10.7386 0.928143 12 1.85509C10.275 3.12272 9.16729 5.08974 9.16729 7.29796" fill="#EB001B"/>
<path id="Shape_4" d="M16.5839 0.374878C14.8538 0.374878 13.2619 0.928143 12 1.85509C13.7254 3.12272 14.8331 5.08974 14.8331 7.29796C14.8331 9.50617 13.7254 11.4732 12 12.7408C13.2619 13.6678 14.8538 14.221 16.5839 14.221C20.6798 14.221 24 11.1215 24 7.29796C24 3.4744 20.6798 0.374878 16.5839 0.374878Z" fill="#0099DF"/>
<path id="Shape_5" fill-rule="evenodd" clip-rule="evenodd" d="M18.3488 16.452C18.4973 16.452 18.6348 16.4798 18.7613 16.536C18.8878 16.5916 18.9974 16.6686 19.0895 16.7664C19.1821 16.8642 19.2541 16.9799 19.3063 17.113C19.3586 17.2466 19.3847 17.3917 19.3847 17.5481C19.3847 17.7045 19.3586 17.8496 19.3063 17.9831C19.2541 18.1162 19.1821 18.2325 19.0895 18.3303C18.9974 18.4281 18.8878 18.5046 18.7613 18.5607C18.6348 18.6164 18.4973 18.6442 18.3488 18.6442C18.2003 18.6442 18.0628 18.6164 17.9363 18.5607C17.8098 18.5046 17.7011 18.4281 17.6095 18.3303C17.5178 18.2325 17.4458 18.1162 17.3936 17.9831C17.3413 17.8496 17.3152 17.7045 17.3152 17.5481C17.3152 17.3917 17.3413 17.2466 17.3936 17.113C17.4458 16.9799 17.5178 16.8642 17.6095 16.7664C17.7011 16.6686 17.8098 16.5916 17.9363 16.536C18.0628 16.4798 18.2003 16.452 18.3488 16.452ZM14.6068 16.9164H15.2874V16.5042H14.6068V15.8749H14.1865V16.5042H13.7978V16.9164H14.1865V17.862C14.1865 18.3437 14.3583 18.6303 14.8511 18.6303C15.0312 18.6303 15.2393 18.5692 15.3713 18.4693L15.2512 18.0835C15.1275 18.1614 14.9913 18.2007 14.8832 18.2007C14.6746 18.2007 14.6068 18.0616 14.6068 17.8535V16.9164ZM17.1232 16.5086C17.031 16.4694 16.9105 16.452 16.8266 16.452C16.5864 16.452 16.4301 16.5737 16.3219 16.756V16.5042H15.9094V18.5781H16.3261V17.415C16.3261 17.0723 16.4622 16.8816 16.7345 16.8816C16.8188 16.8816 16.9068 16.8945 16.9948 16.9338L17.1232 16.5086ZM9.95721 17.3589C10.0017 17.0594 10.1694 16.8553 10.466 16.8553C10.7341 16.8553 10.9065 17.0376 10.9505 17.3589H9.95721ZM10.4738 16.452C11.0105 16.452 11.379 16.8945 11.3832 17.5411C11.3832 17.6012 11.3791 17.6569 11.375 17.7131L11.375 17.7131L11.3749 17.7145H9.95354C10.0136 18.0874 10.2579 18.222 10.526 18.222C10.7181 18.222 10.9225 18.1441 11.0825 18.005L11.2869 18.3392C11.0545 18.5518 10.7905 18.6298 10.5022 18.6298C9.92925 18.6298 9.52085 18.2002 9.52085 17.5411C9.52085 16.8945 9.9132 16.452 10.4738 16.452ZM13.2129 17.0336C13.097 16.9551 12.8609 16.8553 12.6166 16.8553C12.3883 16.8553 12.2522 16.9467 12.2522 17.0986C12.2522 17.2372 12.3961 17.2764 12.5763 17.3023L12.7724 17.3326C13.1891 17.3981 13.4412 17.5888 13.4412 17.9533C13.4412 18.3482 13.1208 18.6303 12.5685 18.6303C12.2559 18.6303 11.9676 18.5433 11.7393 18.3611L11.9355 18.0095C12.0757 18.1267 12.2843 18.2265 12.5726 18.2265C12.8568 18.2265 13.0089 18.1356 13.0089 17.9747C13.0089 17.858 12.9008 17.7924 12.6725 17.7582L12.4763 17.7279C12.0478 17.6623 11.8154 17.4542 11.8154 17.116C11.8154 16.7038 12.128 16.452 12.6125 16.452C12.9168 16.452 13.1932 16.526 13.393 16.6691L13.2129 17.0336ZM18.11 16.9293C18.1838 16.897 18.2631 16.8806 18.3488 16.8806C18.4345 16.8806 18.5143 16.897 18.5876 16.9293C18.6614 16.9621 18.7256 17.0078 18.7792 17.0664C18.8337 17.125 18.8759 17.1955 18.9071 17.2774C18.9378 17.3594 18.9529 17.4498 18.9529 17.5481C18.9529 17.6469 18.9378 17.7368 18.9071 17.8188C18.8759 17.9007 18.8337 17.9712 18.7792 18.0298C18.7256 18.0884 18.6614 18.1341 18.5876 18.1669C18.5143 18.1997 18.4345 18.2156 18.3488 18.2156C18.2631 18.2156 18.1838 18.1997 18.11 18.1669C18.0367 18.1341 17.973 18.0884 17.9193 18.0298C17.8657 17.9712 17.8235 17.9007 17.7928 17.8188C17.7621 17.7368 17.747 17.6469 17.747 17.5481C17.747 17.4498 17.7621 17.3594 17.7928 17.2774C17.8235 17.1955 17.8657 17.125 17.9193 17.0664C17.973 17.0078 18.0367 16.9621 18.11 16.9293ZM8.10498 16.8771C7.74472 16.8771 7.52425 17.1766 7.52425 17.5411C7.52425 17.9057 7.74472 18.2046 8.10498 18.2046C8.44921 18.2046 8.6816 17.9186 8.6816 17.5411C8.6816 17.1637 8.44921 16.8771 8.10498 16.8771ZM9.07395 17.5411V16.5042H8.65776V16.756C8.5253 16.5692 8.32545 16.452 8.05319 16.452C7.51645 16.452 7.09614 16.9074 7.09614 17.5411C7.09614 18.1743 7.51645 18.6303 8.05319 18.6303C8.32545 18.6303 8.5253 18.5131 8.65776 18.3263V18.5781H9.07395V17.5411ZM6.72762 17.2764V18.5781H6.30731V17.4239C6.30731 17.0723 6.17118 16.8771 5.88654 16.8771C5.61061 16.8771 5.4181 17.0683 5.4181 17.4284V18.5781H4.99778V17.4239C4.99778 17.0723 4.85753 16.8771 4.58114 16.8771C4.29696 16.8771 4.1127 17.0683 4.1127 17.4284V18.5781H3.69238V16.5042H4.10857V16.7599C4.26487 16.5171 4.46517 16.452 4.66914 16.452C4.96157 16.452 5.17013 16.5911 5.30213 16.821C5.47814 16.53 5.7307 16.4476 5.975 16.452C6.43932 16.4565 6.72762 16.7863 6.72762 17.2764Z" fill="#231F20"/>
</g>
</svg>
