<svg width="22" height="18" viewBox="0 0 22 18" fill="none" xmlns="http://www.w3.org/2000/svg">
<g id="logo-jcb">
<path id="path6325" d="M21.7951 13.9054C21.7951 15.7581 20.2865 17.2666 18.4338 17.2666H0.145508V3.95402C0.145508 2.10136 1.6541 0.592773 3.50675 0.592773H21.7951V13.9054Z" fill="white"/>
<g id="g6327">
<path id="path6338" d="M15.8398 10.4912H17.2293C17.269 10.4912 17.3617 10.478 17.4014 10.478C17.666 10.425 17.891 10.1869 17.891 9.85602C17.891 9.53842 17.666 9.30022 17.4014 9.23406C17.3617 9.22083 17.2823 9.22083 17.2293 9.22083H15.8398V10.4912Z" fill="url(#paint0_linear_0_8815)"/>
<path id="path6349" d="M17.0701 1.71765C15.7468 1.71765 14.6617 2.78954 14.6617 4.1261V6.62718H18.0626C18.142 6.62718 18.2346 6.62718 18.3008 6.64041C19.0683 6.68011 19.6374 7.07711 19.6374 7.76524C19.6374 8.3078 19.2536 8.77097 18.539 8.8636V8.89006C19.3198 8.943 19.9153 9.37969 19.9153 10.0546C19.9153 10.7824 19.2536 11.2588 18.3802 11.2588H14.6484V16.1551H18.1817C19.505 16.1551 20.5902 15.0832 20.5902 13.7467V1.71765L17.0701 1.71765Z" fill="url(#paint1_linear_0_8815)"/>
<path id="path6360" d="M17.719 7.92406C17.719 7.60646 17.494 7.39473 17.2293 7.35503C17.2029 7.35503 17.1367 7.3418 17.097 7.3418H15.8398V8.50632H17.097C17.1367 8.50632 17.2161 8.50632 17.2293 8.49309C17.494 8.45339 17.719 8.24166 17.719 7.92406V7.92406Z" fill="url(#paint2_linear_0_8815)"/>
</g>
<path id="path6371" d="M3.75762 1.71765C2.4343 1.71765 1.34917 2.78954 1.34917 4.1261V10.0678C2.02407 10.3987 2.72543 10.6104 3.42679 10.6104C4.26048 10.6104 4.71041 10.1075 4.71041 9.41939V6.61395H6.7748V9.40616C6.7748 10.4913 6.0999 11.3779 3.81055 11.3779C2.42106 11.3779 1.33594 11.0735 1.33594 11.0735V16.1419H4.86921C6.19253 16.1419 7.27766 15.07 7.27766 13.7334V1.71765L3.75762 1.71765Z" fill="url(#paint3_linear_0_8815)"/>
<path id="path6384" d="M10.4143 1.71765C9.09098 1.71765 8.00586 2.78954 8.00586 4.1261V7.27561C8.61459 6.75951 9.67325 6.42868 11.3803 6.50808C12.2934 6.54778 13.2727 6.79921 13.2727 6.79921V7.81817C12.7831 7.56674 12.2008 7.34178 11.4465 7.28884C10.1496 7.19621 9.36888 7.83141 9.36888 8.943C9.36888 10.0678 10.1496 10.703 11.4465 10.5972C12.2008 10.5442 12.7831 10.306 13.2727 10.0678V11.0868C13.2727 11.0868 12.3067 11.3382 11.3803 11.3779C9.67325 11.4573 8.61459 11.1265 8.00586 10.6104V16.1683H11.5391C12.8625 16.1683 13.9476 15.0965 13.9476 13.7599V1.71765L10.4143 1.71765Z" fill="url(#paint4_linear_0_8815)"/>
</g>
<defs>
<linearGradient id="paint0_linear_0_8815" x1="14.6599" y1="11.6991" x2="20.6065" y2="11.6991" gradientUnits="userSpaceOnUse">
<stop stop-color="#007940"/>
<stop offset="0.2285" stop-color="#00873F"/>
<stop offset="0.7433" stop-color="#40A737"/>
<stop offset="1" stop-color="#5CB531"/>
</linearGradient>
<linearGradient id="paint1_linear_0_8815" x1="14.6593" y1="16.1559" x2="20.6064" y2="16.1559" gradientUnits="userSpaceOnUse">
<stop stop-color="#007940"/>
<stop offset="0.2285" stop-color="#00873F"/>
<stop offset="0.7433" stop-color="#40A737"/>
<stop offset="1" stop-color="#5CB531"/>
</linearGradient>
<linearGradient id="paint2_linear_0_8815" x1="14.6597" y1="9.76511" x2="20.6066" y2="9.76511" gradientUnits="userSpaceOnUse">
<stop stop-color="#007940"/>
<stop offset="0.2285" stop-color="#00873F"/>
<stop offset="0.7433" stop-color="#40A737"/>
<stop offset="1" stop-color="#5CB531"/>
</linearGradient>
<linearGradient id="paint3_linear_0_8815" x1="1.34637" y1="16.2605" x2="7.3851" y2="16.2605" gradientUnits="userSpaceOnUse">
<stop stop-color="#1F286F"/>
<stop offset="0.4751" stop-color="#004E94"/>
<stop offset="0.8261" stop-color="#0066B1"/>
<stop offset="1" stop-color="#006FBC"/>
</linearGradient>
<linearGradient id="paint4_linear_0_8815" x1="7.97164" y1="16.0627" x2="13.8366" y2="16.0627" gradientUnits="userSpaceOnUse">
<stop stop-color="#6C2C2F"/>
<stop offset="0.1735" stop-color="#882730"/>
<stop offset="0.5731" stop-color="#BE1833"/>
<stop offset="0.8585" stop-color="#DC0436"/>
<stop offset="1" stop-color="#E60039"/>
</linearGradient>
</defs>
</svg>
