<svg width="18" height="15" viewBox="0 0 18 15" fill="none" xmlns="http://www.w3.org/2000/svg">
<g id="logo-dinnersclub">
<path id="Shape" d="M10.332 14.3472C14.1508 14.3654 17.6364 11.2328 17.6364 7.42173C17.6364 3.25417 14.1508 0.373492 10.332 0.374878H7.04547C3.18091 0.373492 0 3.25502 0 7.42173C0 11.2336 3.18091 14.3655 7.04547 14.3472H10.332Z" fill="#0079BE"/>
<path id="Shape_2" fill-rule="evenodd" clip-rule="evenodd" d="M7.0607 0.952393C3.52937 0.953501 0.667824 3.81588 0.666992 7.34862C0.667824 10.8807 3.52934 13.7428 7.0607 13.744C10.5929 13.7428 13.455 10.8807 13.4555 7.34862C13.455 3.81588 10.5929 0.953501 7.0607 0.952393ZM3.0079 7.34862C3.01123 5.62232 4.08937 4.15024 5.60968 3.56526V11.1311C4.08937 10.5464 3.0112 9.07516 3.0079 7.34862ZM8.51115 3.56501V11.1327C10.032 10.5481 11.1118 9.07627 11.1146 7.34862C11.1118 5.62149 10.032 4.14858 8.51115 3.56501Z" fill="white"/>
</g>
</svg>
