<svg width="37" height="13" viewBox="0 0 37 13" fill="none" xmlns="http://www.w3.org/2000/svg">
<g id="logo-visa">
<path id="polygon9" d="M15.9313 12.1943H12.9668L14.821 0.729126H17.7854L15.9313 12.1943Z" fill="#00579F"/>
<path id="path11" d="M26.678 1.00936C26.0932 0.777377 25.1658 0.52124 24.019 0.52124C21.0914 0.52124 19.0299 2.08238 19.0172 4.31433C18.9929 5.96106 20.4932 6.8757 21.6154 7.42477C22.7623 7.98584 23.1522 8.35205 23.1522 8.85217C23.1405 9.62025 22.2254 9.9743 21.3719 9.9743C20.1883 9.9743 19.5541 9.79177 18.5904 9.36444L18.2 9.18125L17.7852 11.7549C18.4805 12.0717 19.7615 12.3528 21.0914 12.3651C24.202 12.3651 26.2271 10.8281 26.2511 8.44964C26.263 7.14448 25.4707 6.14441 23.7627 5.32721C22.7258 4.80261 22.0908 4.44888 22.0908 3.91213C22.103 3.42418 22.6279 2.92439 23.7984 2.92439C24.7621 2.89991 25.4702 3.13156 26.0067 3.36338L26.2748 3.48513L26.678 1.00936V1.00936V1.00936Z" fill="#00579F"/>
<path id="path13" fill-rule="evenodd" clip-rule="evenodd" d="M31.9842 0.729126H34.2772L36.6689 12.1942H33.924C33.924 12.1942 33.6554 10.8768 33.5703 10.4743H29.764C29.654 10.7791 29.1419 12.1942 29.1419 12.1942H26.0312L30.4347 1.6804C30.7398 0.936305 31.277 0.729126 31.9842 0.729126ZM31.8015 4.92474C31.8015 4.92474 30.862 7.47395 30.6179 8.13261H33.082C32.9601 7.55938 32.3987 4.81499 32.3987 4.81499L32.1915 3.82708C32.1043 4.08147 31.9781 4.43122 31.893 4.66712C31.8353 4.82703 31.7965 4.93463 31.8015 4.92474Z" fill="#00579F"/>
<path id="path15" d="M10.4911 0.729126L7.5878 8.54729L7.27055 6.96168C6.7338 5.13208 5.05043 3.14427 3.17188 2.15587L5.83116 12.1822H8.96607L13.6258 0.729126H10.4911V0.729126V0.729126Z" fill="#00579F"/>
<path id="path17" d="M4.89169 0.729126H0.122038L0.0732422 0.960784C3.79387 1.91222 6.25797 4.20561 7.27036 6.96216L6.23349 1.69288C6.06279 0.960622 5.53819 0.753281 4.89169 0.729126V0.729126Z" fill="#FAA61A"/>
</g>
</svg>
