<svg width="39" height="13" viewBox="0 0 39 13" fill="none" xmlns="http://www.w3.org/2000/svg">
<g id="logo-amex">
<path id="SVGID_16_" fill-rule="evenodd" clip-rule="evenodd" d="M24.7666 11.3811V12.3011V12.3012H25.9349V11.1329C25.9349 10.3337 25.3585 10.062 25.3585 10.062C25.3585 10.062 26.0303 9.77375 26.0303 8.95793C26.0303 7.39011 24.5105 7.57402 24.5105 7.57402H21.5986V12.3011H22.799V10.6617H23.9665C24.7181 10.6617 24.7666 11.3811 24.7666 11.3811ZM24.0394 9.54984H22.799V8.65411H24.0394C24.3986 8.65411 24.6946 8.85393 24.6946 9.10202C24.6946 9.3503 24.3986 9.54984 24.0394 9.54984Z" fill="url(#paint0_radial_0_8792)"/>
<path id="SVGID_19_" fill-rule="evenodd" clip-rule="evenodd" d="M15.7196 12.2934H16.7681H17.9521V10.7736H19.1272C20.6791 10.7736 21.1834 10.3414 21.1834 8.94928C21.1834 7.39001 19.6636 7.55828 19.6636 7.55828H16.7525V7.5661H15.8326L14.4491 9.0621L13.0725 7.55828H12.4406H8.70508V12.2934H12.4406H13.168L14.449 10.8933L15.7196 12.2934ZM16.7524 11.6137L15.2648 9.96646L16.7524 8.32601V11.6137ZM9.91326 11.2702H12.4406L13.6245 9.96646L12.4406 8.66974H9.91326V9.3971H12.3764V10.4699H9.91326V11.2702ZM19.1914 9.54119H17.952V8.64546H19.1914C19.5515 8.64546 19.8475 8.84601 19.8475 9.09337C19.8475 9.34155 19.5515 9.54119 19.1914 9.54119Z" fill="url(#paint1_radial_0_8792)"/>
<path id="SVGID_22_" d="M32.9489 12.2856H30.8129V11.1971H32.6852C32.6852 11.1971 33.357 11.2771 33.357 10.8223C33.357 10.397 32.3415 10.43 32.3415 10.43C32.3415 10.43 30.6855 10.5741 30.6855 9.02223C30.6855 7.47823 32.1809 7.56623 32.1809 7.56623H34.4852V8.66987H32.6297C32.6297 8.66987 31.9892 8.5415 31.9892 9.00668C31.9892 9.39723 32.8605 9.34168 32.8605 9.34168C32.8605 9.34168 34.6926 9.20632 34.6926 10.6296C34.6926 12.1563 33.5123 12.2917 33.094 12.2917C33.0037 12.2916 32.9489 12.2856 32.9489 12.2856" fill="url(#paint2_radial_0_8792)"/>
<path id="SVGID_25_" d="M26.5264 12.2935V7.5741H30.2689V8.66982H27.7335V9.39719H30.2055V10.47H27.7335V11.2703H30.2689V12.2935H26.5264" fill="url(#paint3_radial_0_8792)"/>
<path id="SVGID_28_" d="M37.1804 12.2856H35.0445V11.1971H36.9088C36.9088 11.1971 37.5885 11.2771 37.5885 10.8223C37.5885 10.397 36.5732 10.43 36.5732 10.43C36.5732 10.43 34.917 10.5741 34.917 9.02223C34.917 7.47823 36.4124 7.56623 36.4124 7.56623H38.7089V8.66987H36.8604C36.8604 8.66987 36.2205 8.5415 36.2205 9.00668C36.2205 9.39723 37.0929 9.34168 37.0929 9.34168C37.0929 9.34168 38.9242 9.20632 38.9242 10.6296C38.9242 12.1563 37.7439 12.2917 37.3256 12.2917C37.2352 12.2916 37.1804 12.2856 37.1804 12.2856" fill="url(#paint4_radial_0_8792)"/>
<path id="SVGID_1_" fill-rule="evenodd" clip-rule="evenodd" d="M20.1357 4.27587V5.19532H21.3108V4.02796C21.3108 3.22814 20.7275 2.95569 20.7275 2.95569C20.7275 2.95569 21.3993 2.66805 21.3993 1.85214C21.3993 0.284688 19.8796 0.468688 19.8796 0.468688H16.9678V5.19542H18.1671V3.55587H19.3355C20.087 3.55587 20.1357 4.27587 20.1357 4.27587ZM19.4075 2.44414H18.1672V1.54814H19.4075C19.7677 1.54814 20.0638 1.74814 20.0638 1.99632C20.0638 2.24405 19.7677 2.44414 19.4075 2.44414Z" fill="url(#paint5_radial_0_8792)"/>
<path id="SVGID_4_" fill-rule="evenodd" clip-rule="evenodd" d="M32.3897 2.03616L34.2931 5.19544H35.949V0.468708H34.7408V3.58025L32.8609 0.468708H31.165V4.75589L29.3657 0.468708H27.6865L26.1988 3.99589C26.198 3.99615 26.1968 3.99657 26.1951 3.99713C26.1046 4.0277 24.7708 4.47812 24.7667 2.9088C24.7658 2.80762 24.7709 2.69871 24.7822 2.58025C24.8787 1.54798 25.6709 1.54798 25.6709 1.54798L26.8861 1.53234V0.468708L25.4063 0.428345C25.4021 0.429412 25.3901 0.42995 25.3714 0.430791C25.1079 0.442619 23.5107 0.514316 23.5107 2.96407C23.5107 4.96371 25.126 5.19544 25.126 5.19544H25.7023H25.9019H27.0059L27.4226 4.2038H29.614L30.0384 5.19544H31.165H31.3577H32.3897V2.03616ZM29.1018 2.99616H27.9346L28.5265 1.58834L29.1018 2.99616Z" fill="url(#paint6_radial_0_8792)"/>
<path id="SVGID_7_" fill-rule="evenodd" clip-rule="evenodd" d="M10.7204 1.93248V5.19548H11.9374V0.46875H10.0418L8.72947 3.40411L7.40938 0.46875H5.51374V4.81184L3.69029 0.46875H2.0022L0.0107422 5.19548H1.32256L1.74656 4.20384H3.93811L4.35383 5.19548H5.51365H5.67383H6.72147V1.9482L8.23338 5.19548H9.21711L10.7204 1.93248ZM3.42592 2.9962H2.2582L2.84229 1.58839L3.42592 2.9962Z" fill="url(#paint7_radial_0_8792)"/>
<path id="SVGID_10_" d="M12.5996 5.19539V0.46875H16.3438V1.5723H13.8078V2.30002H16.2796V3.37193H13.8078V4.17211H16.3438V5.19539H12.5996" fill="url(#paint8_radial_0_8792)"/>
<path id="SVGID_13_" d="M21.8955 5.21148V0.46875H23.1028V5.21148H21.8955" fill="url(#paint9_radial_0_8792)"/>
</g>
<defs>
<radialGradient id="paint0_radial_0_8792" cx="0" cy="0" r="1" gradientUnits="userSpaceOnUse" gradientTransform="translate(5.38139 -9.46283) scale(46.5494 49.7235)">
<stop stop-color="#00B1E7"/>
<stop offset="0.427" stop-color="#0098CD"/>
<stop offset="0.5244" stop-color="#008DBE"/>
<stop offset="0.8403" stop-color="#006C91"/>
<stop offset="1" stop-color="#005F80"/>
</radialGradient>
<radialGradient id="paint1_radial_0_8792" cx="0" cy="0" r="1" gradientUnits="userSpaceOnUse" gradientTransform="translate(5.38219 -9.46417) scale(46.5521 17.6846)">
<stop stop-color="#00B1E7"/>
<stop offset="0.427" stop-color="#0098CD"/>
<stop offset="0.5244" stop-color="#008DBE"/>
<stop offset="0.8403" stop-color="#006C91"/>
<stop offset="1" stop-color="#005F80"/>
</radialGradient>
<radialGradient id="paint2_radial_0_8792" cx="0" cy="0" r="1" gradientUnits="userSpaceOnUse" gradientTransform="translate(5.38183 -9.46231) scale(46.5491 54.9048)">
<stop stop-color="#00B1E7"/>
<stop offset="0.427" stop-color="#0098CD"/>
<stop offset="0.5244" stop-color="#008DBE"/>
<stop offset="0.8403" stop-color="#006C91"/>
<stop offset="1" stop-color="#005F80"/>
</radialGradient>
<radialGradient id="paint3_radial_0_8792" cx="0" cy="0" r="1" gradientUnits="userSpaceOnUse" gradientTransform="translate(5.38081 -9.46307) scale(46.5514 58.7015)">
<stop stop-color="#00B1E7"/>
<stop offset="0.427" stop-color="#0098CD"/>
<stop offset="0.5244" stop-color="#008DBE"/>
<stop offset="0.8403" stop-color="#006C91"/>
<stop offset="1" stop-color="#005F80"/>
</radialGradient>
<radialGradient id="paint4_radial_0_8792" cx="0" cy="0" r="1" gradientUnits="userSpaceOnUse" gradientTransform="translate(5.38228 -9.46232) scale(46.5479 54.9022)">
<stop stop-color="#00B1E7"/>
<stop offset="0.427" stop-color="#0098CD"/>
<stop offset="0.5244" stop-color="#008DBE"/>
<stop offset="0.8403" stop-color="#006C91"/>
<stop offset="1" stop-color="#005F80"/>
</radialGradient>
<radialGradient id="paint5_radial_0_8792" cx="0" cy="0" r="1" gradientUnits="userSpaceOnUse" gradientTransform="translate(5.38074 -8.55438) scale(46.5526 49.7233)">
<stop stop-color="#00B1E7"/>
<stop offset="0.427" stop-color="#0098CD"/>
<stop offset="0.5244" stop-color="#008DBE"/>
<stop offset="0.8403" stop-color="#006C91"/>
<stop offset="1" stop-color="#005F80"/>
</radialGradient>
<radialGradient id="paint6_radial_0_8792" cx="0" cy="0" r="1" gradientUnits="userSpaceOnUse" gradientTransform="translate(5.38208 -8.5544) scale(46.5495 17.8405)">
<stop stop-color="#00B1E7"/>
<stop offset="0.427" stop-color="#0098CD"/>
<stop offset="0.5244" stop-color="#008DBE"/>
<stop offset="0.8403" stop-color="#006C91"/>
<stop offset="1" stop-color="#005F80"/>
</radialGradient>
<radialGradient id="paint7_radial_0_8792" cx="0" cy="0" r="1" gradientUnits="userSpaceOnUse" gradientTransform="translate(5.38243 -8.55365) scale(46.5499 18.4485)">
<stop stop-color="#00B1E7"/>
<stop offset="0.427" stop-color="#0098CD"/>
<stop offset="0.5244" stop-color="#008DBE"/>
<stop offset="0.8403" stop-color="#006C91"/>
<stop offset="1" stop-color="#005F80"/>
</radialGradient>
<radialGradient id="paint8_radial_0_8792" cx="0" cy="0" r="1" gradientUnits="userSpaceOnUse" gradientTransform="translate(5.37909 -8.55374) scale(46.5533 58.7687)">
<stop stop-color="#00B1E7"/>
<stop offset="0.427" stop-color="#0098CD"/>
<stop offset="0.5244" stop-color="#008DBE"/>
<stop offset="0.8403" stop-color="#006C91"/>
<stop offset="1" stop-color="#005F80"/>
</radialGradient>
<radialGradient id="paint9_radial_0_8792" cx="0" cy="0" r="1" gradientUnits="userSpaceOnUse" gradientTransform="translate(5.38135 -8.5535) scale(46.5506 182.872)">
<stop stop-color="#00B1E7"/>
<stop offset="0.427" stop-color="#0098CD"/>
<stop offset="0.5244" stop-color="#008DBE"/>
<stop offset="0.8403" stop-color="#006C91"/>
<stop offset="1" stop-color="#005F80"/>
</radialGradient>
</defs>
</svg>
