<svg width="17" height="20" viewBox="0 0 17 20" fill="none" xmlns="http://www.w3.org/2000/svg">
<g id="PayPal-logo">
<path id="Shape" d="M4.6878 18.809L5.02522 16.6658L4.2736 16.6484H0.68457L3.17876 0.833548C3.18651 0.785806 3.21167 0.74129 3.24844 0.709677C3.28522 0.678064 3.33231 0.660645 3.38134 0.660645H9.43296C11.442 0.660645 12.8284 1.07871 13.5523 1.90387C13.8917 2.29097 14.1078 2.69548 14.2123 3.14064C14.322 3.60774 14.3239 4.16581 14.2168 4.84645L14.2091 4.89613V5.33226L14.5484 5.52452C14.8342 5.67613 15.0613 5.84968 15.2355 6.04839C15.5259 6.37935 15.7136 6.8 15.793 7.29871C15.8749 7.81161 15.8478 8.42193 15.7136 9.1129C15.5588 9.90774 15.3084 10.6 14.9704 11.1665C14.6594 11.6884 14.2633 12.1213 13.793 12.4568C13.3439 12.7755 12.8104 13.0174 12.2072 13.1723C11.6226 13.3245 10.9562 13.4013 10.2252 13.4013H9.75425C9.41747 13.4013 9.09038 13.5226 8.8336 13.74C8.57618 13.9619 8.40586 14.2652 8.3536 14.5968L8.31812 14.7897L7.72199 18.5671L7.69489 18.7058C7.6878 18.7497 7.67554 18.7716 7.65747 18.7865C7.64134 18.8 7.61812 18.809 7.59554 18.809H4.6878Z" fill="#253B80"/>
<path id="Shape_2" d="M14.8694 4.94641V4.94641V4.94641C14.8513 5.0619 14.8307 5.17996 14.8075 5.30125C14.0094 9.39867 11.2791 10.8142 7.79197 10.8142H6.01649C5.59004 10.8142 5.23068 11.1238 5.16423 11.5445V11.5445V11.5445L4.2552 17.3096L3.99778 18.9438C3.95455 19.22 4.16746 19.469 4.44617 19.469H7.5952C7.9681 19.469 8.28488 19.198 8.34359 18.8303L8.37455 18.6703L8.96746 14.9077L9.00552 14.7013C9.06359 14.3322 9.381 14.0612 9.75391 14.0612H10.2249C13.2758 14.0612 15.6642 12.8225 16.3623 9.23802C16.6539 7.7406 16.5029 6.49028 15.7313 5.61093C15.4978 5.34577 15.2081 5.12577 14.8694 4.94641Z" fill="#179BD7"/>
<path id="Shape_3" d="M14.0344 4.6136C13.9124 4.57812 13.7866 4.54586 13.6576 4.51683C13.5279 4.48844 13.395 4.46328 13.2583 4.44134C12.7795 4.36392 12.255 4.32715 11.6931 4.32715H6.94987C6.83309 4.32715 6.72213 4.3536 6.62277 4.40134C6.40406 4.5065 6.24148 4.7136 6.20213 4.96715L5.19309 11.3581L5.16406 11.5446C5.23051 11.1239 5.58987 10.8142 6.01632 10.8142H7.7918C11.2789 10.8142 14.0092 9.39812 14.8073 5.30134C14.8312 5.18005 14.8512 5.06199 14.8692 4.9465C14.6673 4.83941 14.4486 4.74779 14.2131 4.66973C14.155 4.65037 14.095 4.63166 14.0344 4.6136Z" fill="#222D65"/>
<path id="Shape_4" d="M6.20257 4.9671C6.24193 4.71355 6.40451 4.50645 6.62322 4.40194C6.72322 4.35419 6.83354 4.32774 6.95032 4.32774H11.6935C12.2555 4.32774 12.78 4.36452 13.2587 4.44194C13.3955 4.46387 13.5284 4.48903 13.6581 4.51742C13.7871 4.54645 13.9129 4.57871 14.0348 4.61419C14.0955 4.63226 14.1555 4.65097 14.2142 4.66968C14.4497 4.74774 14.6684 4.84 14.8703 4.94645C15.1077 3.43226 14.8684 2.40129 14.0497 1.46774C13.1471 0.44 11.5181 0 9.43354 0H3.38193C2.95612 0 2.5929 0.309677 2.52709 0.730968L0.0064444 16.7084C-0.043233 17.0245 0.200638 17.3097 0.519348 17.3097H4.25548L5.19354 11.3581L6.20257 4.9671Z" fill="#253B80"/>
</g>
</svg>
