<svg width="16" height="16" viewBox="0 0 16 16" fill="none" xmlns="http://www.w3.org/2000/svg">
<g id="ico-search l:20">
<path id="ico-bookings" fill-rule="evenodd" clip-rule="evenodd" d="M0.429688 15.1111V3.11114L2.62864 0.888916H11.7386C12.1491 0.888916 12.5491 1.00348 12.9386 1.23262C13.3281 1.46176 13.6443 1.76003 13.8873 2.12743C14.1302 2.49484 14.2517 2.87212 14.2517 3.25929V12.1482L12.9951 13.3334V3.85188C12.9951 2.66669 12.3669 2.0741 11.1103 2.0741H3.40142L2.14487 3.25929H9.85377C10.3731 3.25929 10.8171 3.43311 11.1857 3.78077C11.5543 4.12842 11.7386 4.54719 11.7386 5.03706V13.3334C11.7386 13.8232 11.5543 14.242 11.1857 14.5897C10.8171 14.9373 10.3731 15.1111 9.85377 15.1111H0.429688ZM3.16895 9.30077C3.16895 9.3383 3.18361 9.37089 3.21293 9.39855L5.56267 11.6208C5.59199 11.6484 5.62655 11.6622 5.66634 11.6622C5.70613 11.6622 5.74068 11.6484 5.77 11.6208L10.1051 7.53188C10.1721 7.46472 10.1721 7.39953 10.1051 7.33632L9.12498 6.42373C9.05796 6.36052 8.98676 6.3625 8.91136 6.42966L5.77628 9.38669C5.74696 9.4183 5.71136 9.4341 5.66948 9.4341C5.62759 9.4341 5.59199 9.4183 5.56267 9.38669L4.39409 8.28447C4.36477 8.25682 4.32916 8.24299 4.28728 8.24299C4.24539 8.24299 4.20979 8.25682 4.18047 8.28447L3.21293 9.20299C3.18361 9.23064 3.16895 9.26324 3.16895 9.30077V9.30077Z" fill="#0052C3"/>
<mask id="mask0_0_9119" style="mask-type:luminance" maskUnits="userSpaceOnUse" x="0" y="0" width="15" height="16">
<path id="ico-bookings_2" fill-rule="evenodd" clip-rule="evenodd" d="M0.429688 15.1111V3.11114L2.62864 0.888916H11.7386C12.1491 0.888916 12.5491 1.00348 12.9386 1.23262C13.3281 1.46176 13.6443 1.76003 13.8873 2.12743C14.1302 2.49484 14.2517 2.87212 14.2517 3.25929V12.1482L12.9951 13.3334V3.85188C12.9951 2.66669 12.3669 2.0741 11.1103 2.0741H3.40142L2.14487 3.25929H9.85377C10.3731 3.25929 10.8171 3.43311 11.1857 3.78077C11.5543 4.12842 11.7386 4.54719 11.7386 5.03706V13.3334C11.7386 13.8232 11.5543 14.242 11.1857 14.5897C10.8171 14.9373 10.3731 15.1111 9.85377 15.1111H0.429688ZM3.16895 9.30077C3.16895 9.3383 3.18361 9.37089 3.21293 9.39855L5.56267 11.6208C5.59199 11.6484 5.62655 11.6622 5.66634 11.6622C5.70613 11.6622 5.74068 11.6484 5.77 11.6208L10.1051 7.53188C10.1721 7.46472 10.1721 7.39953 10.1051 7.33632L9.12498 6.42373C9.05796 6.36052 8.98676 6.3625 8.91136 6.42966L5.77628 9.38669C5.74696 9.4183 5.71136 9.4341 5.66948 9.4341C5.62759 9.4341 5.59199 9.4183 5.56267 9.38669L4.39409 8.28447C4.36477 8.25682 4.32916 8.24299 4.28728 8.24299C4.24539 8.24299 4.20979 8.25682 4.18047 8.28447L3.21293 9.20299C3.18361 9.23064 3.16895 9.26324 3.16895 9.30077V9.30077Z" fill="white"/>
</mask>
<g mask="url(#mask0_0_9119)">
</g>
</g>
</svg>
