<svg width="12" height="13" viewBox="0 0 12 13" fill="none" xmlns="http://www.w3.org/2000/svg">
<g id="icons/search-results/location">
<path id="ico-location" fill-rule="evenodd" clip-rule="evenodd" d="M6.09556 0.705688C4.20394 0.705688 2.66699 2.15013 2.66699 3.92791C2.66699 4.39458 2.90345 5.03902 2.90345 5.03902C3.80197 7.23902 6.00098 11.2835 6.00098 11.2835C6.02463 11.3279 6.07192 11.3724 6.09556 11.3724C6.11921 11.3724 6.1665 11.3501 6.19014 11.2835C6.19014 11.2835 8.36551 7.23902 9.28768 5.03902C9.28768 5.03902 9.52413 4.39458 9.52413 3.92791C9.52413 2.15013 7.98719 0.705688 6.09556 0.705688V0.705688ZM6.09556 5.39458C5.22069 5.39458 4.53497 4.72791 4.53497 3.92791C4.53497 3.12791 5.24433 2.46124 6.09556 2.46124C6.97044 2.46124 7.65615 3.12791 7.65615 3.92791C7.65615 4.72791 6.97044 5.39458 6.09556 5.39458V5.39458Z" fill="#74716E"/>
<mask id="mask0_0_10985" style="mask-type:luminance" maskUnits="userSpaceOnUse" x="2" y="0" width="8" height="12">
<path id="ico-location_2" fill-rule="evenodd" clip-rule="evenodd" d="M6.09556 0.705688C4.20394 0.705688 2.66699 2.15013 2.66699 3.92791C2.66699 4.39458 2.90345 5.03902 2.90345 5.03902C3.80197 7.23902 6.00098 11.2835 6.00098 11.2835C6.02463 11.3279 6.07192 11.3724 6.09556 11.3724C6.11921 11.3724 6.1665 11.3501 6.19014 11.2835C6.19014 11.2835 8.36551 7.23902 9.28768 5.03902C9.28768 5.03902 9.52413 4.39458 9.52413 3.92791C9.52413 2.15013 7.98719 0.705688 6.09556 0.705688V0.705688ZM6.09556 5.39458C5.22069 5.39458 4.53497 4.72791 4.53497 3.92791C4.53497 3.12791 5.24433 2.46124 6.09556 2.46124C6.97044 2.46124 7.65615 3.12791 7.65615 3.92791C7.65615 4.72791 6.97044 5.39458 6.09556 5.39458V5.39458Z" fill="white"/>
</mask>
<g mask="url(#mask0_0_10985)">
</g>
</g>
</svg>
