<svg width="18" height="15" viewBox="0 0 18 15" fill="none" xmlns="http://www.w3.org/2000/svg">
<g id="ico-search l:20">
<path id="ico-receipt" fill-rule="evenodd" clip-rule="evenodd" d="M14.2432 11.4239H4.19082V10.0192H14.2432V11.4239V11.4239ZM14.2432 8.61457H4.19082V7.2099H14.2432V8.61457V8.61457ZM14.2432 5.80524H4.19082V4.40058H14.2432V5.80524V5.80524ZM1.67773 14.9356L2.93428 13.8821L4.19082 14.9356L5.44737 13.8821L6.70391 14.9356L7.96046 13.8821L9.217 14.9356L10.4735 13.8821L11.7301 14.9356L12.9866 13.8821L14.2432 14.9356L15.4997 13.8821L16.7563 14.9356V0.888916L15.4997 1.94241L14.2432 0.888916L12.9866 1.94241L11.7301 0.888916L10.4735 1.94241L9.217 0.888916L7.96046 1.94241L6.70391 0.888916L5.44737 1.94241L4.19082 0.888916L2.93428 1.94241L1.67773 0.888916V14.9356V14.9356Z" fill="#0052C3"/>
<mask id="mask0_0_9129" style="mask-type:luminance" maskUnits="userSpaceOnUse" x="1" y="0" width="16" height="15">
<path id="ico-receipt_2" fill-rule="evenodd" clip-rule="evenodd" d="M14.2432 11.4239H4.19082V10.0192H14.2432V11.4239V11.4239ZM14.2432 8.61457H4.19082V7.2099H14.2432V8.61457V8.61457ZM14.2432 5.80524H4.19082V4.40058H14.2432V5.80524V5.80524ZM1.67773 14.9356L2.93428 13.8821L4.19082 14.9356L5.44737 13.8821L6.70391 14.9356L7.96046 13.8821L9.217 14.9356L10.4735 13.8821L11.7301 14.9356L12.9866 13.8821L14.2432 14.9356L15.4997 13.8821L16.7563 14.9356V0.888916L15.4997 1.94241L14.2432 0.888916L12.9866 1.94241L11.7301 0.888916L10.4735 1.94241L9.217 0.888916L7.96046 1.94241L6.70391 0.888916L5.44737 1.94241L4.19082 0.888916L2.93428 1.94241L1.67773 0.888916V14.9356V14.9356Z" fill="white"/>
</mask>
<g mask="url(#mask0_0_9129)">
</g>
</g>
</svg>
